<svg width="693" height="334" viewBox="0 0 693 334" fill="none" xmlns="http://www.w3.org/2000/svg">
<path d="M0 334L137.181 37.1013L256.549 114.99H535.381L686.089 108.538L581 334H0Z" fill="url(#paint0_linear)"/>
<path d="M136 334C163.96 273.318 233.504 125.221 233.504 123.747L378.682 181.357L306.525 334H136Z" fill="#FFC531"/>
<path d="M338.975 334C366.935 273.318 433.987 125.221 433.987 123.747L579.164 181.357L509.5 334H338.975Z" fill="#FFC531"/>
<path d="M226.15 52.1537L222.119 41.8242C235.481 40.7255 242.437 38.8058 253.108 31.2427L254.619 36.5334V41.8242L248.825 45.8552L238.999 49.6343L226.15 52.1537Z" fill="black" fill-opacity="0.11"/>
<path d="M279.057 74.3228C279.057 115.37 244.522 151.416 203.475 151.416C162.427 151.416 127.137 115.37 127.137 74.3228C127.137 33.2757 160.412 0.000488281 201.459 0.000488281C242.506 0.000488281 279.057 33.2757 279.057 74.3228Z" fill="#B1660D"/>
<path fill-rule="evenodd" clip-rule="evenodd" d="M203.475 149.905C243.648 149.905 277.545 114.574 277.545 74.3228C277.545 34.1935 241.757 1.51213 201.459 1.51213C161.247 1.51213 128.648 34.1106 128.648 74.3228C128.648 114.554 163.281 149.905 203.475 149.905ZM203.475 151.416C244.522 151.416 279.057 115.37 279.057 74.3228C279.057 33.2757 242.506 0.000488281 201.459 0.000488281C160.412 0.000488281 127.137 33.2757 127.137 74.3228C127.137 115.37 162.427 151.416 203.475 151.416Z" fill="black"/>
<path fill-rule="evenodd" clip-rule="evenodd" d="M214.194 6.70958L205.125 1.67078L205.859 0.349365L214.929 5.38817L214.194 6.70958ZM198.912 6.75063L188.835 2.71959L189.396 1.31607L199.474 5.34711L198.912 6.75063ZM230.335 9.48974L219.753 3.94706L220.455 2.608L231.036 8.15068L230.335 9.48974ZM181.318 11.5528L171.493 8.27754L171.971 6.84348L181.796 10.1187L181.318 11.5528ZM165.363 20.0856L156.797 16.0545L157.441 14.6868L166.007 18.7178L165.363 20.0856ZM152.205 32.1484L144.395 27.6135L145.154 26.3063L152.964 30.8412L152.205 32.1484ZM142.112 48.2634L134.302 43.4765L135.091 42.1877L142.902 46.9746L142.112 48.2634ZM136.644 65.1839L129.086 61.6567L129.725 60.2869L137.284 63.814L136.644 65.1839ZM134.349 80.2867L127.043 76.5076L127.737 75.1649L135.044 78.944L134.349 80.2867ZM136.734 95.4516L130.435 93.4361L130.896 91.9964L137.194 94.0119L136.734 95.4516ZM140.851 110.744L134.3 106.713L135.093 105.425L141.643 109.456L140.851 110.744ZM146.878 121.167L142.343 120.16L142.671 118.684L147.205 119.692L146.878 121.167Z" fill="black"/>
<path d="M282.836 79.3633C282.836 120.41 249.561 153.686 208.514 153.686C167.467 153.686 134.191 120.41 134.191 79.3633C134.191 38.3162 167.467 5.04102 208.514 5.04102C249.561 5.04102 282.836 38.3162 282.836 79.3633Z" fill="#F3C72A"/>
<circle cx="208.439" cy="79.6487" r="56.1833" fill="#F3C72A"/>
<path fill-rule="evenodd" clip-rule="evenodd" d="M208.514 152.174C248.726 152.174 281.324 119.576 281.324 79.3633C281.324 39.1511 248.726 6.55266 208.514 6.55266C168.301 6.55266 135.703 39.1511 135.703 79.3633C135.703 119.576 168.301 152.174 208.514 152.174ZM208.514 153.686C249.561 153.686 282.836 120.41 282.836 79.3633C282.836 38.3162 249.561 5.04102 208.514 5.04102C167.467 5.04102 134.191 38.3162 134.191 79.3633C134.191 120.41 167.467 153.686 208.514 153.686Z" fill="black"/>
<path d="M219.35 7.55762L153.594 126.725C158.466 131.533 161.28 134.179 166.947 138.314L236.734 12.5964C230.405 10.039 226.55 8.9736 219.35 7.55762Z" fill="white" fill-opacity="0.76"/>
<path d="M250.087 20.4066L186.094 147.636C190.688 149.048 193.302 149.774 198.187 150.408L259.157 28.2167C256.802 25.0212 254.541 23.3488 250.087 20.4066Z" fill="white" fill-opacity="0.76"/>
<path fill-rule="evenodd" clip-rule="evenodd" d="M183.621 37.6327L194.159 33.7494L197.431 42.6266L199.017 42.042L195.746 33.1648L206.284 29.2815L209.734 38.6426C214.183 37.7276 218.277 37.5437 221.788 38.5377L221.804 38.542C227.209 40.1285 230.935 43.5163 232.922 48.9097C234.454 53.0665 234.198 57.1472 232.823 60.8626C231.98 63.1398 230.683 65.161 229.057 66.9749C232.172 66.9229 235.129 67.5573 237.907 68.9044C242.141 70.9579 245.074 74.244 246.904 79.2092C249.278 85.6532 248.862 91.8617 245.731 97.287C243.478 101.364 239.87 104.684 235.031 107.295L238.368 116.352L227.83 120.235L224.559 111.358L222.972 111.942L226.244 120.819L215.705 124.703L212.434 115.825L194.247 122.527L189.176 108.766L196.512 106.063C197.836 105.574 198.458 104.227 197.927 102.786L184.314 65.8452C183.783 64.4035 182.436 63.7819 181.112 64.27L173.776 66.9732L168.705 53.2117L186.892 46.5099L183.621 37.6327ZM187.886 39.6572L191.157 48.5344L172.97 55.2362L175.707 62.6654L179.945 61.1038C183.029 59.9672 186.256 61.5634 187.413 64.7035L201.025 101.644C202.182 104.784 200.763 108.092 197.678 109.229L193.441 110.79L196.178 118.219L214.366 111.518L217.637 120.395L221.979 118.795L218.708 109.918L226.49 107.05L229.762 115.927L234.104 114.327L230.889 105.603L232.228 104.945C237.312 102.448 240.797 99.3097 242.846 95.5948L242.854 95.5802L242.863 95.5657C245.459 91.0755 245.861 85.9283 243.806 80.3508C242.259 76.1524 239.904 73.5813 236.516 71.9384C233.086 70.275 229.257 69.8885 224.948 70.8695L223.53 71.1925L222.482 68.3481L223.44 67.6003C226.446 65.2556 228.607 62.6513 229.722 59.6384C230.857 56.5746 231.036 53.3399 229.824 50.0513C228.224 45.711 225.351 43.0754 220.935 41.7771C217.833 40.9013 213.873 41.1118 209.09 42.2387L207.664 42.5748L204.353 33.5894L200.011 35.1893L203.282 44.0665L195.499 46.9344L192.228 38.0572L187.886 39.6572ZM196.583 54.9729L204.917 51.9019L205.025 52.1932C208.308 51.0653 211.663 50.8119 214.055 51.9281C216.439 52.8078 217.883 54.8112 218.716 57.0718C219.67 59.6614 219.826 62.0567 218.756 64.4973L218.416 65.272L218.385 65.3425L218.349 65.4088C217.005 67.8447 214.783 69.7512 211.441 70.9826L210.857 69.3995C210.274 67.8164 210.857 69.3995 211.441 70.9826L203.554 73.8889L196.583 54.9729ZM202.986 56.2097L200.848 56.9974L205.485 69.5811L210.274 67.8164C212.96 66.8268 214.508 65.4141 215.421 63.7943L215.729 63.0912C216.359 61.6528 216.351 60.2056 215.617 58.2134C214.983 56.492 214.083 55.4861 212.919 55.0735L212.831 55.0427L212.748 55.0023C211.442 54.3687 208.893 54.358 205.743 55.5191L203.091 56.4961L202.986 56.2097ZM206.502 81.8908L215.767 78.4768C218.344 77.5274 220.667 77.0035 223.017 77.3015L223.061 77.3071C223.687 77.3863 224.522 77.492 225.477 77.9299C228.496 78.8606 230.363 81.0359 231.537 84.2213C232.609 87.1324 232.716 90.3316 230.936 93.0529L230.864 93.163L230.775 93.2599C230.674 93.3717 230.558 93.5484 230.341 93.8974C230.332 93.9116 230.323 93.9262 230.314 93.9411C230.137 94.2263 229.871 94.6558 229.544 95.0146C228.04 96.6668 226.106 98.1029 223.37 99.111L214.106 102.525L206.502 81.8908ZM210.767 83.9153L216.037 98.2172L222.204 95.9448C224.428 95.1251 225.93 93.9943 227.1 92.7097C227.202 92.598 227.318 92.4213 227.534 92.0722C227.543 92.0581 227.552 92.0436 227.561 92.0286C227.719 91.7742 227.948 91.4048 228.228 91.0732C229.196 89.523 229.249 87.5641 228.438 85.3629C227.518 82.866 226.291 81.6578 224.472 81.1239L224.34 81.085L224.215 81.0246C223.722 80.7854 223.308 80.7243 222.653 80.6413C221.063 80.4397 219.317 80.7646 216.934 81.643L210.767 83.9153Z" fill="#B1660D"/>
<path fill-rule="evenodd" clip-rule="evenodd" d="M208.517 134.538C238.989 134.538 263.691 109.836 263.691 79.3633C263.691 48.891 238.989 24.1884 208.517 24.1884C178.044 24.1884 153.342 48.891 153.342 79.3633C153.342 109.836 178.044 134.538 208.517 134.538ZM208.517 136.05C239.824 136.05 265.203 110.67 265.203 79.3633C265.203 48.0562 239.824 22.6768 208.517 22.6768C177.209 22.6768 151.83 48.0562 151.83 79.3633C151.83 110.67 177.209 136.05 208.517 136.05Z" fill="black"/>
<path d="M254.655 1.26392V22.8696L238.957 27.2533L254.655 28.5058L259.05 45.1015L259.992 28.5058L279.771 22.8696H259.992L254.655 1.26392Z" fill="white" fill-opacity="0.54"/>
<path d="M281.898 76.737L230.279 149.556L218.757 152.321C218.757 152.321 217.152 119.138 232.123 97.4766C250.597 70.7453 280.515 64.2932 280.515 64.2932L281.898 76.737Z" fill="black" fill-opacity="0.12"/>
<path d="M328.342 124.294L324.311 113.964C337.672 112.866 344.628 110.946 355.299 103.383L356.811 108.674V113.964L351.016 117.995L341.191 121.774L328.342 124.294Z" fill="black" fill-opacity="0.11"/>
<path d="M381.248 146.462C381.248 187.51 346.713 223.556 305.666 223.556C264.619 223.556 229.328 187.51 229.328 146.462C229.328 105.415 262.603 72.1401 303.65 72.1401C344.698 72.1401 381.248 105.415 381.248 146.462Z" fill="#949494"/>
<path fill-rule="evenodd" clip-rule="evenodd" d="M305.666 222.044C345.84 222.044 379.736 186.714 379.736 146.462C379.736 106.333 343.948 73.6518 303.65 73.6518C263.438 73.6518 230.84 106.25 230.84 146.462C230.84 186.694 265.473 222.044 305.666 222.044ZM305.666 223.556C346.713 223.556 381.248 187.51 381.248 146.462C381.248 105.415 344.698 72.1401 303.65 72.1401C262.603 72.1401 229.328 105.415 229.328 146.462C229.328 187.51 264.619 223.556 305.666 223.556Z" fill="black"/>
<path fill-rule="evenodd" clip-rule="evenodd" d="M316.386 78.8497L307.316 73.8109L308.05 72.4895L317.12 77.5283L316.386 78.8497ZM301.104 78.8908L291.026 74.8597L291.588 73.4562L301.665 77.4872L301.104 78.8908ZM332.526 81.6299L321.945 76.0872L322.646 74.7481L333.228 80.2908L332.526 81.6299ZM283.51 83.6929L273.684 80.4177L274.162 78.9836L283.988 82.2588L283.51 83.6929ZM267.555 92.2257L258.989 88.1947L259.632 86.8269L268.198 90.858L267.555 92.2257ZM254.396 104.289L246.586 99.7537L247.345 98.4464L255.155 102.981L254.396 104.289ZM244.303 120.404L236.493 115.617L237.283 114.328L245.093 119.115L244.303 120.404ZM238.836 137.324L231.278 133.797L231.917 132.427L239.475 135.954L238.836 137.324ZM236.541 152.427L229.234 148.648L229.929 147.305L237.235 151.084L236.541 152.427ZM238.925 167.592L232.626 165.576L233.087 164.137L239.386 166.152L238.925 167.592ZM243.042 182.884L236.492 178.853L237.284 177.565L243.834 181.597L243.042 182.884ZM249.069 193.308L244.534 192.3L244.862 190.824L249.397 191.832L249.069 193.308Z" fill="black"/>
<path d="M385.027 151.503C385.027 192.55 351.752 225.826 310.705 225.826C269.658 225.826 236.383 192.55 236.383 151.503C236.383 110.456 269.658 77.1809 310.705 77.1809C351.752 77.1809 385.027 110.456 385.027 151.503Z" fill="#B5BDBC"/>
<path fill-rule="evenodd" clip-rule="evenodd" d="M310.705 224.314C350.917 224.314 383.516 191.715 383.516 151.503C383.516 111.291 350.917 78.6925 310.705 78.6925C270.493 78.6925 237.894 111.291 237.894 151.503C237.894 191.715 270.493 224.314 310.705 224.314ZM310.705 225.826C351.752 225.826 385.027 192.55 385.027 151.503C385.027 110.456 351.752 77.1809 310.705 77.1809C269.658 77.1809 236.383 110.456 236.383 151.503C236.383 192.55 269.658 225.826 310.705 225.826Z" fill="black"/>
<path d="M321.542 79.6978L255.785 198.865C260.657 203.674 263.471 206.319 269.138 210.455L338.925 84.7366C332.597 82.1792 328.742 81.1137 321.542 79.6978Z" fill="white" fill-opacity="0.76"/>
<path d="M352.278 92.5467L288.285 219.776C292.879 221.188 295.493 221.914 300.379 222.548L361.348 100.357C358.994 97.1613 356.732 95.4889 352.278 92.5467Z" fill="white" fill-opacity="0.76"/>
<path fill-rule="evenodd" clip-rule="evenodd" d="M310.708 206.678C341.18 206.678 365.883 181.976 365.883 151.503C365.883 121.031 341.18 96.3285 310.708 96.3285C280.236 96.3285 255.533 121.031 255.533 151.503C255.533 181.976 280.236 206.678 310.708 206.678ZM310.708 208.19C342.015 208.19 367.395 182.811 367.395 151.503C367.395 120.196 342.015 94.8169 310.708 94.8169C279.401 94.8169 254.021 120.196 254.021 151.503C254.021 182.811 279.401 208.19 310.708 208.19Z" fill="black"/>
<path d="M356.846 73.4041V95.0097L341.148 99.3935L356.846 100.646L361.242 117.242L362.183 100.646L381.963 95.0097H362.183L356.846 73.4041Z" fill="white" fill-opacity="0.54"/>
<path d="M321.052 100.057L319.927 102.262L307.88 170.198L308.468 171.022L344.289 158.632L321.052 100.057Z" fill="#9C9E9E"/>
<path fill-rule="evenodd" clip-rule="evenodd" d="M321.052 100.057L344.289 158.632L308.468 171.022L307.88 170.198L319.927 102.262L321.052 100.057ZM309.822 168.817L321.152 105.998L342.126 157.644L309.822 168.817Z" fill="black"/>
<path d="M321.91 100.324L280.099 146.402L309.321 171.295L315.17 138.318L321.91 100.324Z" fill="#9C9E9E"/>
<path fill-rule="evenodd" clip-rule="evenodd" d="M280.099 146.402L309.321 171.295L321.91 100.324L280.099 146.402ZM282.459 146.283L308.173 168.188L319.251 105.736L282.459 146.283Z" fill="black"/>
<path d="M306.972 177.18L306.492 177.575L302.233 201.726L302.431 202.934L342.529 164.832L306.972 177.18Z" fill="#9C9E9E"/>
<path fill-rule="evenodd" clip-rule="evenodd" d="M308.004 178.554L304.342 198.036L335.866 168.878L308.004 178.554ZM306.972 177.18L306.492 177.575L302.233 201.726L302.431 202.934L342.529 164.832L306.972 177.18Z" fill="black"/>
<path d="M303.03 203.19L307.572 177.433L278.586 152.598L303.03 203.19Z" fill="#9C9E9E"/>
<path fill-rule="evenodd" clip-rule="evenodd" d="M305.783 178.025L283.428 158.871L302.28 197.889L305.783 178.025ZM303.03 203.19L307.572 177.433L278.586 152.598L303.03 203.19Z" fill="black"/>
<path d="M308.449 171.04L343.849 158.699L314.229 138.188L308.449 171.04Z" fill="#9C9E9E"/>
<path fill-rule="evenodd" clip-rule="evenodd" d="M343.849 158.699L314.229 138.188L308.449 171.04L343.849 158.699ZM340.309 158.203L315.418 140.966L310.561 168.574L340.309 158.203Z" fill="black"/>
<path d="M280.058 146.492L308.923 171.294L314.702 138.442L280.058 146.492Z" fill="#9C9E9E"/>
<path fill-rule="evenodd" clip-rule="evenodd" d="M308.923 171.294L314.702 138.442L280.058 146.492L308.923 171.294ZM307.79 168.198L312.646 140.591L283.533 147.356L307.79 168.198Z" fill="black"/>
<path d="M331.709 76.6629L385.392 142.994L385.263 155.047C385.263 155.047 355.106 149.878 339.05 130.53C319.236 106.653 320.223 75.5028 320.223 75.5028L331.709 76.6629Z" fill="black" fill-opacity="0.12"/>
<path d="M484.135 74.3223C484.135 115.369 449.6 151.416 408.553 151.416C367.506 151.416 332.215 115.369 332.215 74.3223C332.215 33.2752 365.49 0 406.537 0C447.584 0 484.135 33.2752 484.135 74.3223Z" fill="#B1660D"/>
<path fill-rule="evenodd" clip-rule="evenodd" d="M408.553 149.904C448.727 149.904 482.623 114.573 482.623 74.3223C482.623 34.193 446.835 1.51164 406.537 1.51164C366.325 1.51164 333.726 34.1101 333.726 74.3223C333.726 114.554 368.36 149.904 408.553 149.904ZM408.553 151.416C449.6 151.416 484.135 115.369 484.135 74.3223C484.135 33.2752 447.584 0 406.537 0C365.49 0 332.215 33.2752 332.215 74.3223C332.215 115.369 367.506 151.416 408.553 151.416Z" fill="black"/>
<path fill-rule="evenodd" clip-rule="evenodd" d="M419.273 6.70958L410.203 1.67078L410.937 0.349365L420.007 5.38817L419.273 6.70958ZM403.991 6.75063L393.913 2.71959L394.474 1.31607L404.552 5.34711L403.991 6.75063ZM435.413 9.48974L424.832 3.94706L425.533 2.608L436.114 8.15068L435.413 9.48974ZM386.396 11.5528L376.571 8.27754L377.049 6.84348L386.874 10.1187L386.396 11.5528ZM370.441 20.0856L361.875 16.0545L362.519 14.6868L371.085 18.7178L370.441 20.0856ZM357.283 32.1484L349.473 27.6135L350.232 26.3063L358.042 30.8412L357.283 32.1484ZM347.19 48.2634L339.38 43.4765L340.17 42.1877L347.98 46.9746L347.19 48.2634ZM341.722 65.1839L334.164 61.6567L334.803 60.2869L342.362 63.814L341.722 65.1839ZM339.427 80.2867L332.121 76.5076L332.816 75.1649L340.122 78.944L339.427 80.2867ZM341.812 95.4516L335.513 93.4361L335.974 91.9964L342.272 94.0119L341.812 95.4516ZM345.929 110.744L339.378 106.713L340.171 105.425L346.721 109.456L345.929 110.744ZM351.956 121.167L347.421 120.16L347.749 118.684L352.284 119.692L351.956 121.167Z" fill="black"/>
<path d="M487.914 79.3631C487.914 120.41 454.639 153.685 413.592 153.685C372.545 153.685 339.27 120.41 339.27 79.3631C339.27 38.316 372.545 5.04077 413.592 5.04077C454.639 5.04077 487.914 38.316 487.914 79.3631Z" fill="#F3C72A"/>
<circle cx="413.517" cy="79.6487" r="56.1833" fill="#C4C4C4"/>
<path fill-rule="evenodd" clip-rule="evenodd" d="M413.592 152.174C453.804 152.174 486.403 119.575 486.403 79.3631C486.403 39.1509 453.804 6.55241 413.592 6.55241C373.38 6.55241 340.781 39.1509 340.781 79.3631C340.781 119.575 373.38 152.174 413.592 152.174ZM413.592 153.685C454.639 153.685 487.914 120.41 487.914 79.3631C487.914 38.316 454.639 5.04077 413.592 5.04077C372.545 5.04077 339.27 38.316 339.27 79.3631C339.27 120.41 372.545 153.685 413.592 153.685Z" fill="black"/>
<path d="M424.428 7.55762L358.672 126.725C363.544 131.533 366.358 134.179 372.025 138.314L441.812 12.5964C435.484 10.039 431.628 8.9736 424.428 7.55762Z" fill="white" fill-opacity="0.76"/>
<path d="M455.165 20.4066L391.172 147.636C395.766 149.048 398.38 149.774 403.265 150.408L464.235 28.2167C461.88 25.0212 459.619 23.3488 455.165 20.4066Z" fill="white" fill-opacity="0.76"/>
<path d="M413.891 96.4681L413.882 97.769L415.142 97.4434L449.491 88.5644L449.369 101.036L394.324 115.264L394.492 93.2128L394.507 91.2935L392.926 92.3813L387.037 96.4324L387.097 87.9173L394.142 83.0704L394.571 82.7751L394.575 82.2542L394.872 43.3972L414.304 38.3744L414.097 67.433L414.084 69.3512L415.664 68.264L423.741 62.7074L423.676 71.2254L414.453 77.5708L414.023 77.8663L414.02 78.3875L413.891 96.4681Z" fill="#777777" stroke="black" stroke-width="2"/>
<path fill-rule="evenodd" clip-rule="evenodd" d="M413.595 134.538C444.067 134.538 468.77 109.836 468.77 79.3633C468.77 48.891 444.067 24.1884 413.595 24.1884C383.122 24.1884 358.42 48.891 358.42 79.3633C358.42 109.836 383.122 134.538 413.595 134.538ZM413.595 136.05C444.902 136.05 470.281 110.67 470.281 79.3633C470.281 48.0562 444.902 22.6768 413.595 22.6768C382.288 22.6768 356.908 48.0562 356.908 79.3633C356.908 110.67 382.288 136.05 413.595 136.05Z" fill="black"/>
<path d="M459.733 1.26392V22.8696L444.035 27.2533L459.733 28.5058L464.128 45.1015L465.07 28.5058L484.849 22.8696H465.07L459.733 1.26392Z" fill="white" fill-opacity="0.54"/>
<path d="M487.962 76.737L436.343 149.556L421.134 152.321C421.134 152.321 419.529 119.138 434.5 97.4766C452.974 70.7453 486.579 64.2932 486.579 64.2932L487.962 76.737Z" fill="black" fill-opacity="0.12"/>
<path d="M580.783 146.462C580.783 187.51 546.248 223.556 505.201 223.556C464.154 223.556 428.863 187.51 428.863 146.462C428.863 105.415 462.139 72.1401 503.186 72.1401C544.233 72.1401 580.783 105.415 580.783 146.462Z" fill="#02619B"/>
<path fill-rule="evenodd" clip-rule="evenodd" d="M505.201 222.044C545.375 222.044 579.271 186.714 579.271 146.462C579.271 106.333 543.483 73.6518 503.186 73.6518C462.973 73.6518 430.375 106.25 430.375 146.462C430.375 186.694 465.008 222.044 505.201 222.044ZM505.201 223.556C546.248 223.556 580.783 187.51 580.783 146.462C580.783 105.415 544.233 72.1401 503.186 72.1401C462.139 72.1401 428.863 105.415 428.863 146.462C428.863 187.51 464.154 223.556 505.201 223.556Z" fill="black"/>
<path fill-rule="evenodd" clip-rule="evenodd" d="M515.921 78.8497L506.851 73.8109L507.585 72.4895L516.655 77.5283L515.921 78.8497ZM500.639 78.8908L490.561 74.8597L491.123 73.4562L501.2 77.4872L500.639 78.8908ZM532.061 81.6299L521.48 76.0872L522.181 74.7481L532.763 80.2908L532.061 81.6299ZM483.045 83.6929L473.219 80.4177L473.697 78.9836L483.523 82.2588L483.045 83.6929ZM467.09 92.2257L458.524 88.1947L459.168 86.8269L467.733 90.858L467.09 92.2257ZM453.931 104.289L446.121 99.7537L446.88 98.4464L454.69 102.981L453.931 104.289ZM443.838 120.404L436.028 115.617L436.818 114.328L444.628 119.115L443.838 120.404ZM438.371 137.324L430.813 133.797L431.452 132.427L439.01 135.954L438.371 137.324ZM436.076 152.427L428.77 148.648L429.464 147.305L436.77 151.084L436.076 152.427ZM438.46 167.592L432.162 165.576L432.622 164.137L438.921 166.152L438.46 167.592ZM442.577 182.884L436.027 178.853L436.819 177.565L443.37 181.597L442.577 182.884ZM448.604 193.308L444.069 192.3L444.397 190.824L448.932 191.832L448.604 193.308Z" fill="black"/>
<path d="M584.563 151.503C584.563 192.55 551.287 225.826 510.24 225.826C469.193 225.826 435.918 192.55 435.918 151.503C435.918 110.456 469.193 77.1809 510.24 77.1809C551.287 77.1809 584.563 110.456 584.563 151.503Z" fill="#008DE4"/>
<circle cx="510.166" cy="151.789" r="56.1833" fill="#C4C4C4"/>
<path fill-rule="evenodd" clip-rule="evenodd" d="M510.24 224.314C550.453 224.314 583.051 191.715 583.051 151.503C583.051 111.291 550.453 78.6925 510.24 78.6925C470.028 78.6925 437.43 111.291 437.43 151.503C437.43 191.715 470.028 224.314 510.24 224.314ZM510.24 225.826C551.287 225.826 584.563 192.55 584.563 151.503C584.563 110.456 551.287 77.1809 510.24 77.1809C469.193 77.1809 435.918 110.456 435.918 151.503C435.918 192.55 469.193 225.826 510.24 225.826Z" fill="black"/>
<path d="M521.077 79.6978L455.32 198.865C460.193 203.674 463.006 206.319 468.673 210.455L538.461 84.7366C532.132 82.1792 528.277 81.1137 521.077 79.6978Z" fill="white" fill-opacity="0.76"/>
<path d="M551.813 92.5467L487.821 219.776C492.414 221.188 495.028 221.914 499.914 222.548L560.883 100.357C558.529 97.1613 556.267 95.4889 551.813 92.5467Z" fill="white" fill-opacity="0.76"/>
<path d="M531.77 175.762L531.77 175.762C540.993 170.338 545.883 160.172 546.977 147.203C547.789 137.48 546.725 129.575 542.567 124.405C538.452 119.289 531.099 116.615 518.717 117.85L490.931 120.62L490.019 132.35L514.724 129.92L514.726 129.92C521.116 129.283 525.572 130.005 528.529 132.023C531.53 134.071 532.804 137.324 533.135 141.274C533.135 141.275 533.135 141.275 533.135 141.275L532.305 141.345L531.77 175.762ZM531.77 175.762C527.598 178.218 523.57 179.787 513.643 180.777M531.77 175.762L513.643 180.777M513.643 180.777L486.222 183.511M513.643 180.777L486.222 183.511M486.222 183.511L487.133 171.765M486.222 183.511L487.133 171.765M487.133 171.765L511.409 169.362L487.133 171.765Z" fill="#008DE4" stroke="black" stroke-width="1.66667"/>
<path d="M478.034 154.495L478.034 154.494C478.036 154.474 478.039 154.454 478.042 154.434C478.25 152.91 478.493 151.137 479.487 149.631C480.454 148.167 482.215 146.846 485.737 146.495L513.87 143.69C513.861 143.77 513.851 143.855 513.841 143.946C513.739 144.827 513.569 146.202 513.297 148.171L513.297 148.172L513.289 148.231C513.081 149.756 512.838 151.528 511.844 153.034C510.877 154.499 509.115 155.819 505.594 156.17L477.461 158.975C477.47 158.895 477.48 158.81 477.49 158.72C477.592 157.838 477.762 156.463 478.034 154.495Z" fill="#008DE4" stroke="black" stroke-width="1.66667"/>
<path fill-rule="evenodd" clip-rule="evenodd" d="M510.243 206.678C540.715 206.678 565.418 181.976 565.418 151.503C565.418 121.031 540.715 96.3285 510.243 96.3285C479.771 96.3285 455.068 121.031 455.068 151.503C455.068 181.976 479.771 206.678 510.243 206.678ZM510.243 208.19C541.55 208.19 566.93 182.811 566.93 151.503C566.93 120.196 541.55 94.8169 510.243 94.8169C478.936 94.8169 453.557 120.196 453.557 151.503C453.557 182.811 478.936 208.19 510.243 208.19Z" fill="black"/>
<path d="M556.381 73.4041V95.0097L540.684 99.3935L556.381 100.646L560.777 117.242L561.719 100.646L581.498 95.0097H561.719L556.381 73.4041Z" fill="white" fill-opacity="0.54"/>
<path d="M530.455 76.5116L584.138 142.842L584.009 154.896C584.009 154.896 553.852 149.727 537.796 130.378C517.982 106.502 518.969 75.3515 518.969 75.3515L530.455 76.5116Z" fill="black" fill-opacity="0.12"/>
<path d="M689.221 74.3223C689.221 115.369 654.686 151.416 613.639 151.416C572.592 151.416 537.301 115.369 537.301 74.3223C537.301 33.2752 570.576 0 611.623 0C652.67 0 689.221 33.2752 689.221 74.3223Z" fill="#949494"/>
<path fill-rule="evenodd" clip-rule="evenodd" d="M613.639 149.904C653.812 149.904 687.709 114.573 687.709 74.3223C687.709 34.193 651.921 1.51164 611.623 1.51164C571.411 1.51164 538.812 34.1101 538.812 74.3223C538.812 114.554 573.445 149.904 613.639 149.904ZM613.639 151.416C654.686 151.416 689.221 115.369 689.221 74.3223C689.221 33.2752 652.67 0 611.623 0C570.576 0 537.301 33.2752 537.301 74.3223C537.301 115.369 572.592 151.416 613.639 151.416Z" fill="black"/>
<path fill-rule="evenodd" clip-rule="evenodd" d="M624.358 6.70958L615.289 1.67078L616.023 0.349365L625.093 5.38817L624.358 6.70958ZM609.076 6.75063L598.999 2.71959L599.56 1.31607L609.638 5.34711L609.076 6.75063ZM640.499 9.48974L629.917 3.94706L630.619 2.608L641.2 8.15068L640.499 9.48974ZM591.482 11.5528L581.657 8.27754L582.135 6.84348L591.96 10.1187L591.482 11.5528ZM575.527 20.0856L566.961 16.0545L567.605 14.6868L576.171 18.7178L575.527 20.0856ZM562.369 32.1484L554.559 27.6135L555.318 26.3063L563.128 30.8412L562.369 32.1484ZM552.276 48.2634L544.466 43.4765L545.255 42.1877L553.066 46.9746L552.276 48.2634ZM546.808 65.1839L539.25 61.6567L539.889 60.2869L547.448 63.814L546.808 65.1839ZM544.513 80.2867L537.207 76.5076L537.902 75.1649L545.208 78.944L544.513 80.2867ZM546.898 95.4516L540.599 93.4361L541.06 91.9964L547.358 94.0119L546.898 95.4516ZM551.015 110.744L544.464 106.713L545.257 105.425L551.807 109.456L551.015 110.744ZM557.042 121.167L552.507 120.16L552.835 118.684L557.37 119.692L557.042 121.167Z" fill="black"/>
<path d="M693 79.3631C693 120.41 659.725 153.685 618.678 153.685C577.631 153.685 544.355 120.41 544.355 79.3631C544.355 38.316 577.631 5.04077 618.678 5.04077C659.725 5.04077 693 38.316 693 79.3631Z" fill="#C4C4C4"/>
<circle cx="618.603" cy="79.6487" r="56.1833" fill="#26A17B"/>
<path fill-rule="evenodd" clip-rule="evenodd" d="M618.678 152.174C658.89 152.174 691.488 119.575 691.488 79.3631C691.488 39.1509 658.89 6.55241 618.678 6.55241C578.466 6.55241 545.867 39.1509 545.867 79.3631C545.867 119.575 578.466 152.174 618.678 152.174ZM618.678 153.685C659.725 153.685 693 120.41 693 79.3631C693 38.316 659.725 5.04077 618.678 5.04077C577.631 5.04077 544.355 38.316 544.355 79.3631C544.355 120.41 577.631 153.685 618.678 153.685Z" fill="black"/>
<path d="M629.514 7.55762L563.758 126.725C568.63 131.533 571.444 134.179 577.111 138.314L646.898 12.5964C640.57 10.039 636.714 8.9736 629.514 7.55762Z" fill="white" fill-opacity="0.76"/>
<path d="M660.251 20.4066L596.258 147.636C600.852 149.048 603.466 149.774 608.351 150.408L669.321 28.2167C666.966 25.0212 664.705 23.3488 660.251 20.4066Z" fill="white" fill-opacity="0.76"/>
<mask id="path-68-inside-1" fill="white">
<path d="M627.776 87.0301L627.774 87.0189C627.301 87.1066 624.854 87.5311 619.373 88.1525C614.99 88.6493 611.902 88.8748 610.809 88.9421L610.81 88.9533C593.87 90.1149 580.964 88.5887 580.562 85.0449C580.162 81.5122 592.409 77.1234 609.167 74.465L610.477 86.0132C611.584 85.9669 614.768 85.7985 619.129 85.3041C624.366 84.7105 626.959 84.19 627.442 84.09L626.135 72.553C643.042 71.4063 655.915 72.9363 656.316 76.469C656.716 80.0016 644.501 84.3755 627.777 87.0413L627.776 87.0301ZM625.999 71.3568L624.828 61.0272L648.296 58.3669L646.51 42.6154L582.62 49.8579L584.405 65.6094L607.873 62.9491L609.044 73.2787C590.07 76.3241 576.165 81.7501 576.682 86.3113C577.199 90.8724 591.977 93.047 611.142 91.7804L614.895 124.893L631.861 122.97L628.107 89.8572C647.048 86.8156 660.931 81.3921 660.414 76.831C659.898 72.281 645.152 70.0915 626.011 71.3667"/>
</mask>
<path d="M627.776 87.0301L627.774 87.0189C627.301 87.1066 624.854 87.5311 619.373 88.1525C614.99 88.6493 611.902 88.8748 610.809 88.9421L610.81 88.9533C593.87 90.1149 580.964 88.5887 580.562 85.0449C580.162 81.5122 592.409 77.1234 609.167 74.465L610.477 86.0132C611.584 85.9669 614.768 85.7985 619.129 85.3041C624.366 84.7105 626.959 84.19 627.442 84.09L626.135 72.553C643.042 71.4063 655.915 72.9363 656.316 76.469C656.716 80.0016 644.501 84.3755 627.777 87.0413L627.776 87.0301ZM625.999 71.3568L624.828 61.0272L648.296 58.3669L646.51 42.6154L582.62 49.8579L584.405 65.6094L607.873 62.9491L609.044 73.2787C590.07 76.3241 576.165 81.7501 576.682 86.3113C577.199 90.8724 591.977 93.047 611.142 91.7804L614.895 124.893L631.861 122.97L628.107 89.8572C647.048 86.8156 660.931 81.3921 660.414 76.831C659.898 72.281 645.152 70.0915 626.011 71.3667" fill="white"/>
<path d="M627.774 87.0189L630.755 86.681L630.393 83.4832L627.228 84.069L627.774 87.0189ZM610.809 88.9421L610.624 85.9478L607.472 86.142L607.828 89.28L610.809 88.9421ZM610.81 88.9533L611.015 91.9463L614.144 91.7317L613.791 88.6154L610.81 88.9533ZM609.167 74.465L612.148 74.1271L611.795 71.0107L608.697 71.5021L609.167 74.465ZM610.477 86.0132L607.496 86.3511L607.81 89.1272L610.602 89.0105L610.477 86.0132ZM627.442 84.09L628.051 87.0276L630.732 86.4724L630.423 83.7521L627.442 84.09ZM626.135 72.553L625.932 69.5599L622.8 69.7722L623.154 72.8909L626.135 72.553ZM627.777 87.0413L624.796 87.3792L625.15 90.4979L628.249 90.0039L627.777 87.0413ZM624.828 61.0272L624.49 58.0463L621.509 58.3842L621.847 61.3651L624.828 61.0272ZM648.296 58.3669L648.634 61.3478L651.615 61.0099L651.277 58.029L648.296 58.3669ZM646.51 42.6154L649.491 42.2775L649.153 39.2966L646.173 39.6345L646.51 42.6154ZM582.62 49.8579L582.282 46.877L579.301 47.2149L579.639 50.1958L582.62 49.8579ZM584.405 65.6094L581.424 65.9473L581.762 68.9282L584.743 68.5903L584.405 65.6094ZM607.873 62.9491L610.854 62.6112L610.516 59.6303L607.535 59.9682L607.873 62.9491ZM609.044 73.2787L609.52 76.2408L612.348 75.7869L612.025 72.9408L609.044 73.2787ZM611.142 91.7804L614.122 91.4425L613.8 88.5981L610.944 88.7869L611.142 91.7804ZM614.895 124.893L611.914 125.231L612.252 128.212L615.233 127.874L614.895 124.893ZM631.861 122.97L632.199 125.951L635.18 125.613L634.842 122.632L631.861 122.97ZM628.107 89.8572L627.632 86.8951L624.804 87.3493L625.126 90.1951L628.107 89.8572ZM630.757 86.6922L630.755 86.681L624.793 87.3568L624.795 87.368L630.757 86.6922ZM627.228 84.069C626.843 84.1403 624.469 84.5555 619.035 85.1716L619.711 91.1334C625.239 90.5067 627.759 90.0728 628.32 89.9688L627.228 84.069ZM619.035 85.1716C614.704 85.6625 611.668 85.8835 610.624 85.9478L610.993 91.9364C612.137 91.866 615.276 91.6361 619.711 91.1334L619.035 85.1716ZM607.828 89.28L607.829 89.2912L613.791 88.6154L613.789 88.6042L607.828 89.28ZM610.605 85.9603C602.246 86.5335 594.994 86.4338 589.859 85.7871C587.267 85.4607 585.384 85.0148 584.207 84.5354C583.616 84.2949 583.354 84.1059 583.279 84.0392C583.223 83.9889 583.486 84.2057 583.543 84.707L577.581 85.3828C577.738 86.77 578.493 87.8097 579.285 88.5166C580.059 89.2072 581.004 89.7098 581.945 90.0926C583.829 90.8597 586.307 91.3872 589.109 91.7401C594.763 92.4521 602.434 92.5347 611.015 91.9463L610.605 85.9603ZM583.543 84.707C583.6 85.2132 583.39 85.4857 583.434 85.4231C583.492 85.3411 583.706 85.098 584.229 84.7311C585.271 83.9999 587.008 83.1431 589.462 82.244C594.323 80.4628 601.369 78.7395 609.637 77.428L608.697 71.5021C600.207 72.8489 592.75 74.6492 587.398 76.6102C584.745 77.5821 582.448 78.6511 580.783 79.8194C579.952 80.4023 579.144 81.1025 578.544 81.947C577.93 82.811 577.424 83.9934 577.581 85.3828L583.543 84.707ZM606.187 74.8029L607.496 86.3511L613.457 85.6753L612.148 74.1271L606.187 74.8029ZM610.602 89.0105C611.766 88.9619 615.022 88.7888 619.466 88.285L618.791 82.3232C614.513 82.8081 611.402 82.9719 610.351 83.0158L610.602 89.0105ZM619.466 88.285C624.791 87.6814 627.475 87.1469 628.051 87.0276L626.834 81.1523C626.443 81.2332 623.941 81.7395 618.791 82.3232L619.466 88.285ZM630.423 83.7521L629.115 72.2151L623.154 72.8909L624.461 84.4279L630.423 83.7521ZM626.338 75.5461C634.68 74.9803 641.916 75.0846 647.039 75.7325C649.625 76.0596 651.502 76.5053 652.677 76.9838C653.266 77.2237 653.526 77.4121 653.6 77.478C653.656 77.5278 653.392 77.3099 653.335 76.8069L659.297 76.1311C659.139 74.7449 658.385 73.7064 657.594 73.0008C656.822 72.3114 655.879 71.8096 654.941 71.4273C653.06 70.6611 650.588 70.1336 647.792 69.78C642.151 69.0664 634.497 68.979 625.932 69.5599L626.338 75.5461ZM653.335 76.8069C653.278 76.303 653.487 76.0312 653.443 76.0925C653.386 76.1735 653.174 76.4156 652.653 76.7815C651.614 77.511 649.883 78.3659 647.435 79.2636C642.586 81.042 635.557 82.7634 627.305 84.0787L628.249 90.0039C636.721 88.6534 644.162 86.855 649.501 84.8968C652.147 83.9262 654.44 82.8587 656.102 81.6912C656.931 81.1086 657.738 80.4086 658.337 79.5638C658.95 78.6993 659.454 77.518 659.297 76.1311L653.335 76.8069ZM630.758 86.7034L630.757 86.6922L624.795 87.368L624.796 87.3792L630.758 86.7034ZM628.98 71.0189L627.809 60.6893L621.847 61.3651L623.018 71.6947L628.98 71.0189ZM625.166 64.0081L648.634 61.3478L647.958 55.386L624.49 58.0463L625.166 64.0081ZM651.277 58.029L649.491 42.2775L643.53 42.9533L645.315 58.7048L651.277 58.029ZM646.173 39.6345L582.282 46.877L582.958 52.8388L646.848 45.5963L646.173 39.6345ZM579.639 50.1958L581.424 65.9473L587.386 65.2715L585.601 49.52L579.639 50.1958ZM584.743 68.5903L608.211 65.93L607.535 59.9682L584.067 62.6285L584.743 68.5903ZM604.892 63.287L606.063 73.6167L612.025 72.9408L610.854 62.6112L604.892 63.287ZM608.569 70.3167C598.952 71.8602 590.5 74.0236 584.442 76.4402C581.436 77.6397 578.853 78.9662 577.001 80.4182C575.313 81.7421 573.384 83.852 573.701 86.6492L579.663 85.9734C579.722 86.49 579.337 86.2112 580.704 85.1397C581.907 84.1963 583.889 83.1208 586.666 82.013C592.175 79.815 600.163 77.7427 609.52 76.2408L608.569 70.3167ZM573.701 86.6492C574.019 89.4473 576.373 91.0716 578.314 91.9836C580.445 92.9841 583.259 93.699 586.459 94.1957C592.904 95.1963 601.626 95.4158 611.339 94.7739L610.944 88.7869C601.492 89.4116 593.243 89.177 587.379 88.2667C584.424 87.808 582.25 87.2032 580.865 86.5527C579.292 85.8137 579.604 85.4558 579.663 85.9734L573.701 86.6492ZM608.161 92.1183L611.914 125.231L617.876 124.555L614.122 91.4425L608.161 92.1183ZM615.233 127.874L632.199 125.951L631.523 119.989L614.557 121.912L615.233 127.874ZM634.842 122.632L631.088 89.5193L625.126 90.1951L628.88 123.308L634.842 122.632ZM628.583 92.8192C638.183 91.2776 646.622 89.1156 652.67 86.6999C655.672 85.5007 658.251 84.1744 660.1 82.7223C661.787 81.3975 663.712 79.288 663.395 76.4931L657.433 77.1689C657.375 76.6545 657.757 76.9334 656.395 78.0034C655.194 78.946 653.216 80.0209 650.444 81.128C644.945 83.3246 636.972 85.3953 627.632 86.8951L628.583 92.8192ZM663.395 76.4931C663.078 73.6988 660.727 72.0754 658.79 71.1637C656.663 70.1633 653.853 69.4476 650.659 68.9501C644.223 67.948 635.514 67.7269 625.812 68.3734L626.211 74.3601C635.649 73.7313 643.883 73.9674 649.735 74.8787C652.685 75.3379 654.854 75.943 656.235 76.5929C657.806 77.3316 657.492 77.6882 657.433 77.1689L663.395 76.4931Z" fill="#132B23" mask="url(#path-68-inside-1)"/>
<path fill-rule="evenodd" clip-rule="evenodd" d="M618.681 134.538C649.153 134.538 673.856 109.836 673.856 79.3633C673.856 48.891 649.153 24.1884 618.681 24.1884C588.208 24.1884 563.506 48.891 563.506 79.3633C563.506 109.836 588.208 134.538 618.681 134.538ZM618.681 136.05C649.988 136.05 675.367 110.67 675.367 79.3633C675.367 48.0562 649.988 22.6768 618.681 22.6768C587.374 22.6768 561.994 48.0562 561.994 79.3633C561.994 110.67 587.374 136.05 618.681 136.05Z" fill="black"/>
<path d="M664.819 1.26392V22.8696L649.121 27.2533L664.819 28.5058L669.214 45.1015L670.156 28.5058L689.935 22.8696H670.156L664.819 1.26392Z" fill="white" fill-opacity="0.54"/>
<defs>
<linearGradient id="paint0_linear" x1="353.796" y1="111.764" x2="353.796" y2="308.099" gradientUnits="userSpaceOnUse">
<stop stop-color="#FAB80F"/>
<stop offset="1" stop-color="#FAB80F" stop-opacity="0"/>
</linearGradient>
</defs>
</svg>
